<svg xmlns="http://www.w3.org/2000/svg" xmlns:svg="http://www.w3.org/2000/svg" id="svg27" width="20.308" height="12.922" version="1.1"><metadata id="metadata33"/><g id="Page-1" fillRule="evenodd" strokeWidth="1" style="fill:none;stroke:none" transform="translate(-0.69230769,-0.61666004)"><g id="Destroy" fillRule="nonzero" transform="translate(0,-1)"><g id="Group" transform="translate(0,1)"><polygon id="Shape" points="4.385 5.231 .692 5.231 .692 8.923 4.385 8.923 4.385 12.615 9.923 7.077 4.385 1.538" style="fill:#2b3990"/><rect id="Rectangle-path" width="2.61" height="5.221" x="9.54" y=".775" transform="rotate(-45,10.845138,3.385446)" style="fill:#27aae1"/><rect id="rect4" width="2.61" height="5.221" x="16.925" y="8.16" transform="rotate(-45,18.229754,10.770062)" style="fill:#27aae1"/><rect id="rect6" width="2.61" height="5.221" x="9.542" y="8.16" transform="rotate(-135,10.846985,10.770246)" style="fill:#27aae1"/><rect id="rect8" width="2.61" height="5.221" x="16.926" y=".775" transform="rotate(-135,18.2316,3.385631)" style="fill:#27aae1"/></g><g id="g23" transform="translate(2.538462,0.692308)" style="opacity:.1"><rect id="rect11" width="3.264" height="2.61" x="5.984" y="10.463" transform="rotate(135,7.6164,11.768538)" style="fill:#000"/><polygon id="polygon13" points="1.836 3.713 6.462 8.308 7.385 7.385 1.836 1.873" style="fill:#fff"/><rect id="rect15" width="5.221" height="2.61" x="5.698" y="2.388" transform="rotate(-135,8.308523,3.693323)" style="fill:#fff"/><rect id="rect17" width="5.221" height="2.61" x="13.083" y="9.773" transform="rotate(-135,15.693138,11.077938)" style="fill:#fff"/><rect id="rect19" width="2.61" height="1.959" x="8.155" y="8.943" transform="rotate(45,9.460009,9.922714)" style="fill:#fff"/><rect id="rect21" width="2.61" height="5.221" x="14.388" y="1.083" transform="rotate(-135,15.693138,3.693323)" style="fill:#fff"/></g></g></g></svg>