<svg xmlns="http://www.w3.org/2000/svg" xmlns:svg="http://www.w3.org/2000/svg" id="svg11" width="24" height="24" version="1.1"><metadata id="metadata17"/><g id="Function" fillRule="nonzero"><path id="Shape" d="M 24,14.571429 V 9.4285714 H 21.948 C 21.704571,8.4874286 21.336,7.5994286 20.852571,6.7834286 l 1.450286,-1.4502857 -3.636,-3.6377143 -1.450286,1.4502857 c -0.816,-0.4817143 -1.704,-0.852 -2.645142,-1.0954286 V 0 H 9.4285714 V 2.052 C 8.4874286,2.2954286 7.5994286,2.664 6.7834286,3.1474286 l -1.4502857,-1.4502857 -3.636,3.636 1.4502857,1.4502857 c -0.4817143,0.816 -0.852,1.704 -1.0954286,2.6451428 H 0 v 5.1428576 h 2.052 c 0.2434286,0.941142 0.612,1.829142 1.0954286,2.645142 l -1.4502857,1.450286 3.636,3.637714 1.4502857,-1.450285 c 0.816,0.481714 1.704,0.852 2.6451428,1.095428 V 24 h 5.1428576 v -2.052 c 0.941142,-0.243429 1.829142,-0.612 2.645142,-1.095429 l 1.450286,1.450286 3.636,-3.637714 -1.450286,-1.450286 c 0.481715,-0.816 0.852,-1.704 1.095429,-2.645143 H 24 Z" style="fill:#27aae1"/><polygon id="polygon3" points="10.286 12 12 12.857 15.429 11.143 15.429 13.714 12 15.456 8.571 13.714 8.571 10.286 12 8.571 15.429 6.857 12 5.143 5.143 8.571 5.143 15.429 12 18.857 17.571 16.071 18.857 15.429 18.857 15 18.857 8.571 17.143 7.714 10.286 11.143" style="fill:#2b3990"/><g id="Group" style="opacity:.1"><path id="path5" d="m 3.1457143,6.7834286 c -0.4817143,0.816 -0.852,1.704 -1.0954286,2.6451428 H 0 v 5.1428576 h 2.052 c 0.2434286,0.941142 0.612,1.829142 1.0954286,2.645142 l -1.4502857,1.450286 3.636,3.637714 1.4502857,-1.450285 c 0.816,0.481714 1.704,0.852 2.6451428,1.095428 V 24 h 5.1428576 v -2.052 c 0.941142,-0.243429 1.829142,-0.612 2.645142,-1.095429 L 18.666857,22.302857 20.485714,20.484 3.5142857,3.5142857 1.6971429,5.3331429 Z" style="fill:#000"/><path id="path7" d="m 22.302857,18.666857 -1.450286,-1.450286 c 0.481715,-0.816 0.852,-1.704 1.095429,-2.645142 H 24 V 9.4285714 H 21.948 C 21.704571,8.4874286 21.336,7.5994286 20.852571,6.7834286 l 1.450286,-1.4502857 -3.636,-3.6377143 -1.450286,1.4502857 c -0.816,-0.4817143 -1.704,-0.852 -2.645142,-1.0954286 V 0 H 9.4285714 V 2.052 C 8.4874286,2.2954286 7.5994286,2.664 6.7834286,3.1474286 L 5.3331429,1.6971429 3.5142857,3.5142857 20.484,20.484 Z" style="fill:#fff"/></g></g></svg>