<svg xmlns="http://www.w3.org/2000/svg" xmlns:svg="http://www.w3.org/2000/svg" id="svg4259" width="53.333" height="53.333" version="1.1" viewBox="0 0 50 50"><metadata id="metadata4264"/><g id="layer1" transform="translate(-277.14285,-263.79077)"><text xml:space="preserve" style="font-style:normal;font-weight:400;font-size:29.2100544px;line-height:125%;font-family:Sans;letter-spacing:0;word-spacing:0;fill:#000;fill-opacity:1;stroke:none;stroke-width:1px;stroke-linecap:butt;stroke-linejoin:miter;stroke-opacity:1" id="text4809" x="293.222" y="299.438"><tspan id="tspan4811" x="293.222" y="299.438">T</tspan></text><rect style="opacity:1;fill:none;fill-opacity:.56284156;fill-rule:nonzero;stroke:#000;stroke-width:.99999994;stroke-linecap:round;stroke-linejoin:round;stroke-miterlimit:4;stroke-dasharray:none;stroke-opacity:1" id="rect4813" width="48.394" height="48.02" x="277.946" y="264.781"/><path style="opacity:1;fill:none;fill-opacity:.56284156;fill-rule:nonzero;stroke:#000;stroke-width:1.7467221;stroke-linecap:round;stroke-linejoin:round;stroke-miterlimit:4;stroke-dasharray:none;stroke-opacity:1" id="path4819" d="m -281.14279,289.79077 -6,3.4641 -6,3.4641 0,-6.9282 0,-6.9282 6,3.4641 z" transform="matrix(-0.57029112,0,0,0.57471928,119.22654,122.88529)"/><rect id="rect4821" width="26.622" height="26.413" x="288.832" y="275.584" style="opacity:1;fill:none;fill-opacity:.56284156;fill-rule:nonzero;stroke:#000;stroke-width:.99999994;stroke-linecap:round;stroke-linejoin:round;stroke-miterlimit:4;stroke-dasharray:none;stroke-opacity:1"/><path id="path4823" d="m -281.14279,289.79077 -6,3.4641 -6,3.4641 0,-6.9282 0,-6.9282 6,3.4641 z" transform="matrix(0.57029112,0,0,0.57471928,484.95084,122.88529)" style="opacity:1;fill:none;fill-opacity:.56284156;fill-rule:nonzero;stroke:#000;stroke-width:1.7467221;stroke-linecap:round;stroke-linejoin:round;stroke-miterlimit:4;stroke-dasharray:none;stroke-opacity:1"/><path id="path4825" d="m -281.14279,289.79077 -6,3.4641 -6,3.4641 0,-6.9282 0,-6.9282 6,3.4641 z" transform="matrix(0,-0.57029112,-0.57471928,0,468.69119,106.13584)" style="opacity:1;fill:none;fill-opacity:.56284156;fill-rule:nonzero;stroke:#000;stroke-width:1.7467221;stroke-linecap:round;stroke-linejoin:round;stroke-miterlimit:4;stroke-dasharray:none;stroke-opacity:1"/><path style="opacity:1;fill:none;fill-opacity:.56284156;fill-rule:nonzero;stroke:#000;stroke-width:1.7467221;stroke-linecap:round;stroke-linejoin:round;stroke-miterlimit:4;stroke-dasharray:none;stroke-opacity:1" id="path4827" d="m -281.14279,289.79077 -6,3.4641 -6,3.4641 0,-6.9282 0,-6.9282 6,3.4641 z" transform="matrix(0,0.57029112,-0.57471928,0,468.69119,471.52867)"/></g></svg>